<svg width="241" height="240" viewBox="0 0 241 240" fill="none" xmlns="http://www.w3.org/2000/svg" xmlns:xlink="http://www.w3.org/1999/xlink">
<defs>
<filter id="filter0_b" x="-0.442125" y="-7.13158" width="242.826" height="170.076" filterUnits="userSpaceOnUse" color-interpolation-filters="sRGB">
<feFlood flood-opacity="0" result="BackgroundImageFix"/>
<feGaussianBlur in="BackgroundImage" stdDeviation="15.5189"/>
<feComposite in2="SourceAlpha" operator="in" result="effect1_backgroundBlur"/>
<feBlend mode="normal" in="SourceGraphic" in2="effect1_backgroundBlur" result="shape"/>
</filter>
<filter id="filter1_b" x="-0.442125" y="-7.13158" width="242.826" height="170.076" filterUnits="userSpaceOnUse" color-interpolation-filters="sRGB">
<feFlood flood-opacity="0" result="BackgroundImageFix"/>
<feGaussianBlur in="BackgroundImage" stdDeviation="15.5189"/>
<feComposite in2="SourceAlpha" operator="in" result="effect1_backgroundBlur"/>
<feBlend mode="normal" in="SourceGraphic" in2="effect1_backgroundBlur" result="shape"/>
</filter>
<filter id="filter2_f" x="38.762" y="67.6018" width="127.232" height="116.046" filterUnits="userSpaceOnUse" color-interpolation-filters="sRGB">
<feFlood flood-opacity="0" result="BackgroundImageFix"/>
<feBlend mode="normal" in="SourceGraphic" in2="BackgroundImageFix" result="shape"/>
<feGaussianBlur stdDeviation="7.44908" result="effect1_foregroundBlur"/>
</filter>
<filter id="filter3_b" x="-0.442125" y="41.1497" width="194.243" height="142.701" filterUnits="userSpaceOnUse" color-interpolation-filters="sRGB">
<feFlood flood-opacity="0" result="BackgroundImageFix"/>
<feGaussianBlur in="BackgroundImage" stdDeviation="15.5189"/>
<feComposite in2="SourceAlpha" operator="in" result="effect1_backgroundBlur"/>
<feBlend mode="normal" in="SourceGraphic" in2="effect1_backgroundBlur" result="shape"/>
</filter>
<filter id="filter4_b" x="-0.442125" y="41.1497" width="194.243" height="142.701" filterUnits="userSpaceOnUse" color-interpolation-filters="sRGB">
<feFlood flood-opacity="0" result="BackgroundImageFix"/>
<feGaussianBlur in="BackgroundImage" stdDeviation="15.5189"/>
<feComposite in2="SourceAlpha" operator="in" result="effect1_backgroundBlur"/>
<feBlend mode="normal" in="SourceGraphic" in2="effect1_backgroundBlur" result="shape"/>
</filter>
<linearGradient id="paint0_linear" x1="59.2223" y1="42.8293" x2="185.286" y2="134.871" gradientUnits="userSpaceOnUse">
<stop offset="0.416176" stop-color="white" stop-opacity="0.7"/>
<stop offset="1" stop-color="white" stop-opacity="0"/>
</linearGradient>
<linearGradient id="paint1_linear" x1="16.7545" y1="52.3657" x2="80.3642" y2="99.2704" gradientUnits="userSpaceOnUse">
<stop stop-color="white"/>
<stop offset="1" stop-color="white" stop-opacity="0"/>
</linearGradient>
<linearGradient id="paint2_linear" x1="51.5279" y1="86.3141" x2="145.028" y2="153.18" gradientUnits="userSpaceOnUse">
<stop offset="0.416176" stop-color="white" stop-opacity="0.7"/>
<stop offset="1" stop-color="white" stop-opacity="0"/>
</linearGradient>
<linearGradient id="paint3_linear" x1="20.4748" y1="93.4333" x2="67.662" y2="127.515" gradientUnits="userSpaceOnUse">
<stop stop-color="white"/>
<stop offset="1" stop-color="white" stop-opacity="0"/>
</linearGradient>
</defs>
<path d="M211.346 102.325C211.346 118.662 197.743 131.906 180.958 131.906H70.9996C48.6867 131.906 30.5957 114.298 30.5957 92.5689C30.5957 70.846 48.6867 53.2316 70.9996 53.2316C73.0008 53.2316 74.9677 53.3812 76.8963 53.6533C86.0207 36.012 104.786 23.9062 126.463 23.9062C152.693 23.9062 174.667 41.6369 180.44 65.4578C181.016 67.8362 181.432 70.2727 181.67 72.7549V72.7611C198.119 73.1267 211.346 86.2211 211.346 102.325Z" fill="#BAC7CB" fill-opacity="0.4"/>
<g filter="url(#filter0_b)">
<path d="M211.346 102.325C211.346 118.662 197.743 131.906 180.958 131.906H70.9996C48.6867 131.906 30.5957 114.298 30.5957 92.5689C30.5957 70.846 48.6867 53.2316 70.9996 53.2316C73.0008 53.2316 74.9677 53.3812 76.8963 53.6533C86.0207 36.012 104.786 23.9062 126.463 23.9062C152.693 23.9062 174.667 41.6369 180.44 65.4578C181.016 67.8362 181.432 70.2727 181.67 72.7549V72.7611C198.119 73.1267 211.346 86.2211 211.346 102.325Z" fill="url(#paint0_linear)"/>
</g>
<g filter="url(#filter1_b)">
<path fill-rule="evenodd" clip-rule="evenodd" d="M77.4346 54.6619L76.7608 54.5669C74.8739 54.3006 72.9523 54.1547 70.9996 54.1547C49.2077 54.1547 31.542 71.3574 31.542 92.5689C31.542 113.787 49.2076 130.983 70.9996 130.983H180.958C197.222 130.983 210.399 118.151 210.399 102.325C210.399 86.7258 197.586 74.0382 181.649 73.684L180.724 73.6634V72.7983C180.489 70.3743 180.081 67.9943 179.519 65.6702C173.845 42.2573 152.245 24.8293 126.463 24.8293C105.156 24.8293 86.7107 36.7272 77.7412 54.0691L77.4346 54.6619ZM181.67 72.7549V72.7611C198.119 73.1267 211.346 86.2211 211.346 102.325C211.346 118.662 197.743 131.906 180.958 131.906H70.9996C48.6867 131.906 30.5957 114.298 30.5957 92.5689C30.5957 70.846 48.6867 53.2316 70.9996 53.2316C73.0008 53.2316 74.9677 53.3812 76.8963 53.6533C86.0207 36.012 104.786 23.9062 126.463 23.9062C152.693 23.9062 174.667 41.6369 180.44 65.4578C181.016 67.8362 181.432 70.2727 181.67 72.7549Z" fill="url(#paint1_linear)"/>
</g>
<g filter="url(#filter2_f)">
<path d="M151.096 125.625C151.096 149.442 129.284 168.75 102.378 168.75C75.4718 168.75 53.6602 149.442 53.6602 125.625C53.6602 101.808 75.4718 82.5 102.378 82.5C129.284 82.5 151.096 101.808 151.096 125.625Z" fill="#BAC7CB" fill-opacity="0.2"/>
</g>
<path d="M162.763 130.73C162.763 142.925 152.816 152.812 140.543 152.812H60.1396C43.8241 152.812 30.5957 139.668 30.5957 123.446C30.5957 107.229 43.8241 94.0797 60.1396 94.0797C61.6029 94.0797 63.0412 94.1913 64.4514 94.3945C71.1233 81.2247 84.8446 72.1875 100.695 72.1875C119.875 72.1875 135.942 85.4239 140.164 103.207C140.585 104.982 140.889 106.801 141.064 108.654V108.659C153.091 108.932 162.763 118.707 162.763 130.73Z" fill="#BAC7CB"/>
<g filter="url(#filter3_b)">
<path d="M162.763 130.73C162.763 142.925 152.816 152.812 140.543 152.812H60.1396C43.8241 152.812 30.5957 139.668 30.5957 123.446C30.5957 107.229 43.8241 94.0797 60.1396 94.0797C61.6029 94.0797 63.0412 94.1913 64.4514 94.3945C71.1233 81.2247 84.8446 72.1875 100.695 72.1875C119.875 72.1875 135.942 85.4239 140.164 103.207C140.585 104.982 140.889 106.801 141.064 108.654V108.659C153.091 108.932 162.763 118.707 162.763 130.73Z" fill="url(#paint2_linear)"/>
</g>
<g filter="url(#filter4_b)">
<path fill-rule="evenodd" clip-rule="evenodd" d="M64.9868 95.4189L64.3166 95.3223C62.9478 95.1252 61.5547 95.0172 60.1396 95.0172C44.3424 95.0172 31.5371 107.749 31.5371 123.446C31.5371 139.148 44.3423 151.875 60.1396 151.875H140.543C152.298 151.875 161.821 142.406 161.821 130.73C161.821 119.22 152.561 109.858 141.042 109.596L140.122 109.575V108.699C139.951 106.905 139.656 105.143 139.248 103.423C135.125 86.054 119.43 73.125 100.695 73.125C85.213 73.125 71.8097 81.9512 65.2919 94.8168L64.9868 95.4189ZM141.064 108.654V108.659C153.091 108.932 162.763 118.707 162.763 130.73C162.763 142.925 152.816 152.812 140.543 152.812H60.1396C43.8241 152.812 30.5957 139.668 30.5957 123.446C30.5957 107.229 43.8241 94.0797 60.1396 94.0797C61.6029 94.0797 63.0412 94.1913 64.4514 94.3945C71.1233 81.2247 84.8446 72.1875 100.695 72.1875C119.875 72.1875 135.942 85.4239 140.164 103.207C140.585 104.982 140.889 106.801 141.064 108.654Z" fill="url(#paint3_linear)"/>
</g>
<path d="M119.653 165C114.252 168.769 110.615 175.805 110.615 183.868C110.615 184.156 110.619 184.443 110.628 184.727C111.07 198.424 128.235 198.424 128.677 184.727C128.687 184.443 128.69 184.156 128.69 183.868C128.692 175.805 125.054 168.769 119.653 165Z" fill="#00A3FF"/>
<path d="M81.0559 137.344C75.6553 141.113 72.0176 148.148 72.0176 156.212C72.0176 156.5 72.0225 156.786 72.0324 157.072C72.4727 170.768 89.6374 170.768 90.0794 157.072C90.0876 156.786 90.0926 156.5 90.0926 156.212C90.0926 148.148 86.4565 141.113 81.0559 137.344Z" fill="#00A3FF"/>
<path d="M163.574 146.25C158.173 150.019 154.536 157.055 154.536 165.118C154.536 165.406 154.541 165.692 154.55 165.979C154.992 179.674 172.156 179.674 172.598 165.979C172.608 165.692 172.611 165.406 172.611 165.118C172.613 157.055 168.977 150.019 163.574 146.25Z" fill="#00A3FF"/>
</svg>
