<svg width="240" height="240" viewBox="0 0 240 240" fill="none" xmlns="http://www.w3.org/2000/svg" xmlns:xlink="http://www.w3.org/1999/xlink">
<defs>
<filter id="filter0_b" x="-0.569078" y="-11.8191" width="242.076" height="170.076" filterUnits="userSpaceOnUse" color-interpolation-filters="sRGB">
<feFlood flood-opacity="0" result="BackgroundImageFix"/>
<feGaussianBlur in="BackgroundImage" stdDeviation="15.5189"/>
<feComposite in2="SourceAlpha" operator="in" result="effect1_backgroundBlur"/>
<feBlend mode="normal" in="SourceGraphic" in2="effect1_backgroundBlur" result="shape"/>
</filter>
<filter id="filter1_b" x="-0.569078" y="-11.8191" width="242.076" height="170.076" filterUnits="userSpaceOnUse" color-interpolation-filters="sRGB">
<feFlood flood-opacity="0" result="BackgroundImageFix"/>
<feGaussianBlur in="BackgroundImage" stdDeviation="15.5189"/>
<feComposite in2="SourceAlpha" operator="in" result="effect1_backgroundBlur"/>
<feBlend mode="normal" in="SourceGraphic" in2="effect1_backgroundBlur" result="shape"/>
</filter>
<filter id="filter2_f" x="38.5393" y="67.6018" width="126.828" height="116.046" filterUnits="userSpaceOnUse" color-interpolation-filters="sRGB">
<feFlood flood-opacity="0" result="BackgroundImageFix"/>
<feBlend mode="normal" in="SourceGraphic" in2="BackgroundImageFix" result="shape"/>
<feGaussianBlur stdDeviation="7.44908" result="effect1_foregroundBlur"/>
</filter>
<filter id="filter3_b" x="-0.569078" y="36.4622" width="194.076" height="140.076" filterUnits="userSpaceOnUse" color-interpolation-filters="sRGB">
<feFlood flood-opacity="0" result="BackgroundImageFix"/>
<feGaussianBlur in="BackgroundImage" stdDeviation="15.5189"/>
<feComposite in2="SourceAlpha" operator="in" result="effect1_backgroundBlur"/>
<feBlend mode="normal" in="SourceGraphic" in2="effect1_backgroundBlur" result="shape"/>
</filter>
<filter id="filter4_b" x="-0.569078" y="36.4622" width="194.076" height="140.076" filterUnits="userSpaceOnUse" color-interpolation-filters="sRGB">
<feFlood flood-opacity="0" result="BackgroundImageFix"/>
<feGaussianBlur in="BackgroundImage" stdDeviation="15.5189"/>
<feComposite in2="SourceAlpha" operator="in" result="effect1_backgroundBlur"/>
<feBlend mode="normal" in="SourceGraphic" in2="effect1_backgroundBlur" result="shape"/>
</filter>
<linearGradient id="paint0_linear" x1="58.9766" y1="38.1418" x2="184.88" y2="129.685" gradientUnits="userSpaceOnUse">
<stop offset="0.416176" stop-color="white" stop-opacity="0.7"/>
<stop offset="1" stop-color="white" stop-opacity="0"/>
</linearGradient>
<linearGradient id="paint1_linear" x1="16.685" y1="47.6782" x2="80.216" y2="94.3306" gradientUnits="userSpaceOnUse">
<stop stop-color="white"/>
<stop offset="1" stop-color="white" stop-opacity="0"/>
</linearGradient>
<linearGradient id="paint2_linear" x1="51.3745" y1="81.1667" x2="142.724" y2="148.608" gradientUnits="userSpaceOnUse">
<stop offset="0.416176" stop-color="white" stop-opacity="0.7"/>
<stop offset="1" stop-color="white" stop-opacity="0"/>
</linearGradient>
<linearGradient id="paint3_linear" x1="20.3606" y1="88.0541" x2="66.4495" y2="122.419" gradientUnits="userSpaceOnUse">
<stop stop-color="white"/>
<stop offset="1" stop-color="white" stop-opacity="0"/>
</linearGradient>
</defs>
<path d="M210.469 97.6379C210.469 113.975 196.923 127.219 180.207 127.219H70.705C48.4847 127.219 30.4688 109.611 30.4688 87.8814C30.4688 66.1585 48.4847 48.5441 70.705 48.5441C72.6978 48.5441 74.6567 48.6937 76.5772 48.9658C85.6638 31.3245 104.351 19.2188 125.938 19.2188C152.059 19.2188 173.942 36.9494 179.691 60.7703C180.264 63.1487 180.679 65.5852 180.917 68.0674V68.0736C197.297 68.4392 210.469 81.5336 210.469 97.6379Z" fill="#BAC7CB" fill-opacity="0.4"/>
<g filter="url(#filter0_b)">
<path d="M210.469 97.6379C210.469 113.975 196.923 127.219 180.207 127.219H70.705C48.4847 127.219 30.4688 109.611 30.4688 87.8814C30.4688 66.1585 48.4847 48.5441 70.705 48.5441C72.6978 48.5441 74.6567 48.6937 76.5772 48.9658C85.6638 31.3245 104.351 19.2188 125.938 19.2188C152.059 19.2188 173.942 36.9494 179.691 60.7703C180.264 63.1487 180.679 65.5852 180.917 68.0674V68.0736C197.297 68.4392 210.469 81.5336 210.469 97.6379Z" fill="url(#paint0_linear)"/>
</g>
<g filter="url(#filter1_b)">
<path fill-rule="evenodd" clip-rule="evenodd" d="M77.1133 49.9744L76.4423 49.8794C74.5632 49.6131 72.6496 49.4672 70.705 49.4672C49.0035 49.4672 31.4112 66.6699 31.4112 87.8814C31.4112 109.099 49.0034 126.296 70.705 126.296H180.207C196.404 126.296 209.526 113.463 209.526 97.6379C209.526 82.0383 196.766 69.3507 180.895 68.9965L179.974 68.9759V68.1108C179.74 65.6868 179.334 63.3068 178.774 60.9827C173.123 37.5698 151.614 20.1418 125.938 20.1418C104.72 20.1418 86.3509 32.0397 77.4186 49.3816L77.1133 49.9744ZM180.917 68.0674V68.0736C197.297 68.4392 210.469 81.5336 210.469 97.6379C210.469 113.975 196.923 127.219 180.207 127.219H70.705C48.4847 127.219 30.4688 109.611 30.4688 87.8814C30.4688 66.1585 48.4847 48.5441 70.705 48.5441C72.6978 48.5441 74.6567 48.6937 76.5772 48.9658C85.6638 31.3245 104.351 19.2188 125.938 19.2188C152.059 19.2188 173.942 36.9494 179.691 60.7703C180.264 63.1487 180.679 65.5852 180.917 68.0674Z" fill="url(#paint1_linear)"/>
</g>
<g filter="url(#filter2_f)">
<path d="M150.469 125.625C150.469 149.442 128.748 168.75 101.953 168.75C75.1587 168.75 53.4375 149.442 53.4375 125.625C53.4375 101.808 75.1587 82.5 101.953 82.5C128.748 82.5 150.469 101.808 150.469 125.625Z" fill="#BAC7CB" fill-opacity="0.2"/>
</g>
<path d="M162.469 124.136C162.469 135.935 152.535 145.5 140.277 145.5H59.9754C43.6804 145.5 30.4688 132.783 30.4688 117.09C30.4688 101.401 43.6804 88.6794 59.9754 88.6794C61.4368 88.6794 62.8732 88.7875 64.2816 88.984C70.9451 76.243 84.6491 67.5 100.48 67.5C119.635 67.5 135.682 80.3055 139.898 97.5095C140.319 99.2272 140.623 100.987 140.797 102.78V102.784C152.809 103.048 162.469 112.505 162.469 124.136Z" fill="#BAC7CB"/>
<g filter="url(#filter3_b)">
<path d="M162.469 124.136C162.469 135.935 152.535 145.5 140.277 145.5H59.9754C43.6804 145.5 30.4688 132.783 30.4688 117.09C30.4688 101.401 43.6804 88.6794 59.9754 88.6794C61.4368 88.6794 62.8732 88.7875 64.2816 88.984C70.9451 76.243 84.6491 67.5 100.48 67.5C119.635 67.5 135.682 80.3055 139.898 97.5095C140.319 99.2272 140.623 100.987 140.797 102.78V102.784C152.809 103.048 162.469 112.505 162.469 124.136Z" fill="url(#paint2_linear)"/>
</g>
<g filter="url(#filter4_b)">
<path fill-rule="evenodd" clip-rule="evenodd" d="M64.8164 89.975L64.147 89.8816C62.78 89.6909 61.3886 89.5864 59.9754 89.5864C44.1981 89.5864 31.409 101.903 31.409 117.09C31.409 132.28 44.198 144.593 59.9754 144.593H140.277C152.018 144.593 161.529 135.432 161.529 124.136C161.529 113.001 152.28 103.944 140.776 103.691L139.857 103.671V102.822C139.686 101.087 139.391 99.3825 138.983 97.7181C134.866 80.915 119.19 68.407 100.48 68.407C85.0171 68.407 71.6306 76.9458 65.1211 89.3925L64.8164 89.975ZM140.797 102.78V102.784C152.809 103.048 162.469 112.505 162.469 124.136C162.469 135.935 152.535 145.5 140.277 145.5H59.9754C43.6804 145.5 30.4688 132.783 30.4688 117.09C30.4688 101.401 43.6804 88.6794 59.9754 88.6794C61.4368 88.6794 62.8732 88.7875 64.2816 88.984C70.9451 76.243 84.6491 67.5 100.48 67.5C119.635 67.5 135.682 80.3055 139.898 97.5095C140.319 99.2272 140.623 100.987 140.797 102.78Z" fill="url(#paint3_linear)"/>
</g>
<path d="M69 164.893C67.2073 166.4 66 169.214 66 172.44C66 172.556 66.0016 172.67 66.0044 172.784C66.1512 178.263 71.8488 178.263 71.9951 172.784C71.9984 172.67 72 172.556 72 172.44C72 169.214 70.7927 166.4 69 164.893Z" fill="#00A3FF"/>
<path d="M88.7729 173.43C86.9794 174.937 85.7726 177.751 85.7726 180.977C85.7726 181.093 85.7742 181.207 85.777 181.321C85.9232 186.799 91.6219 186.799 91.7682 181.321C91.7715 181.207 91.7726 181.093 91.7726 180.977C91.7731 177.751 90.5658 174.937 88.7729 173.43Z" fill="#00A3FF"/>
<path d="M88.7729 150C86.9794 151.507 85.7726 154.322 85.7726 157.547C85.7726 157.662 85.7742 157.777 85.777 157.891C85.9232 163.37 91.6219 163.37 91.7682 157.891C91.7715 157.777 91.7726 157.662 91.7726 157.547C91.7731 154.322 90.5658 151.507 88.7729 150Z" fill="#00A3FF"/>
<path d="M108.545 164.893C106.752 166.4 105.545 169.214 105.545 172.44C105.545 172.556 105.547 172.67 105.549 172.784C105.696 178.263 111.394 178.263 111.54 172.784C111.543 172.67 111.545 172.556 111.545 172.44C111.545 169.214 110.338 166.4 108.545 164.893Z" fill="#00A3FF"/>
<path d="M128.319 173.43C126.526 174.937 125.319 177.751 125.319 180.977C125.319 181.093 125.32 181.207 125.323 181.321C125.469 186.799 131.168 186.799 131.314 181.321C131.318 181.207 131.319 181.093 131.319 180.977C131.319 177.751 130.112 174.937 128.319 173.43Z" fill="#00A3FF"/>
<path d="M167.978 173.43C166.185 174.937 164.978 177.751 164.978 180.977C164.978 181.093 164.98 181.207 164.982 181.321C165.129 186.799 170.827 186.799 170.973 181.321C170.976 181.207 170.978 181.093 170.978 180.977C170.978 177.751 169.771 174.937 167.978 173.43Z" fill="#00A3FF"/>
<path d="M148.091 164.893C146.298 166.4 145.091 169.214 145.091 172.44C145.091 172.556 145.093 172.67 145.096 172.784C145.242 178.263 150.94 178.263 151.086 172.784C151.089 172.67 151.091 172.556 151.091 172.44C151.091 169.214 149.884 166.4 148.091 164.893Z" fill="#00A3FF"/>
</svg>
